<?xml version="1.0" encoding="UTF-8"?>
<svg xmlns="http://www.w3.org/2000/svg" version="1.1" viewBox="0 0 1067.58 841.89">
  <defs>
    <style>
      .cls-1 {
        font-size: 27.94px;
      }

      .cls-1, .cls-2, .cls-3 {
        font-family: MyriadPro-Regular, 'Myriad Pro';
      }

      .cls-1, .cls-2, .cls-3, .cls-4, .cls-5 {
        fill: #1d1d1b;
      }

      .cls-2 {
        font-size: 12px;
      }

      .cls-6 {
        stroke-width: 3px;
      }

      .cls-6, .cls-7 {
        fill: none;
      }

      .cls-6, .cls-7, .cls-5 {
        stroke: #1d1d1b;
        stroke-miterlimit: 10;
      }

      .cls-8 {
        fill: #add6f4;
      }

      .cls-8, .cls-9, .cls-10, .cls-4, .cls-11, .cls-12, .cls-13, .cls-14, .cls-15, .cls-16, .cls-17 {
        stroke-width: 0px;
      }

      .cls-9 {
        fill: #9f9bcc;
      }

      .cls-10 {
        fill: #450e16;
      }

      .cls-3 {
        font-size: 24.21px;
      }

      .cls-11 {
        fill: #f5f1ab;
      }

      .cls-12 {
        fill: #1e3e1d;
      }

      .cls-7, .cls-5 {
        stroke-width: 2px;
      }

      .cls-13 {
        fill: #45133b;
      }

      .cls-14 {
        fill: #1f244b;
      }

      .cls-15 {
        fill: #fdd6aa;
      }

      .cls-16 {
        fill: #5f4f16;
      }

      .cls-17 {
        fill: #db99c3;
      }
    </style>
  </defs>
  <g id="_Слой_1" data-name="Слой 1">
    <g>
      <line class="cls-5" x1="487.86" y1="573.7" x2="514.99" y2="401.7"/>
      <line class="cls-5" x1="353" y1="401.7" x2="380.13" y2="573.7"/>
      <line class="cls-7" x1="380.13" y1="573.7" x2="487.86" y2="573.7"/>
      <ellipse class="cls-7" cx="433.99" cy="399.43" rx="81.71" ry="17.67"/>
    </g>
    <g>
      <path class="cls-4" d="M112.36,132.86l-.03.2c-.27.49-.68.96-1.23,1.41l.28-1.77.98.16Z"/>
      <path class="cls-4" d="M112.33,133.06l.03-.2-.98-.16-.99-.16-.04-.03c.23-.29.35-.57.35-.84,0-2.93-13.73-7.02-36.09-7.02s-36.09,4.09-36.09,7.02c0,.27.12.55.35.84l-.04.03-.99.16-.99.16.03.18c-.24-.44-.36-.9-.36-1.37,0-5.92,19.16-9.02,38.09-9.02s38.09,3.1,38.09,9.02c0,.48-.13.94-.37,1.39Z"/>
      <path class="cls-4" d="M112.33,133.06l-12.28,77.87-.99-.15h0s8.89-56.36,8.89-56.36c.07.02.14.05.21.07l.66-1.89c-.18-.06-.37-.13-.55-.19l2.83-17.94c.55-.45.96-.92,1.23-1.41Z"/>
      <path class="cls-4" d="M111.38,132.7l-.28,1.77c-.33.27-.71.54-1.14.79l.43-2.72.99.16Z"/>
      <path class="cls-4" d="M111.1,134.47l-2.83,17.94c-.32-.11-.64-.23-.96-.33l2.65-16.82c.43-.25.81-.52,1.14-.79Z"/>
      <path class="cls-4" d="M110.39,132.54l-.43,2.72c-5.95,3.58-20.72,5.43-35.35,5.43s-29.4-1.85-35.35-5.43l-.43-2.72.04-.03c2.27,2.81,15.45,6.18,35.74,6.18s33.47-3.37,35.74-6.18l.04.03Z"/>
      <path class="cls-4" d="M108.82,152.6l-.66,1.89c-.07-.02-.14-.05-.21-.07l.32-2.01c.18.06.37.13.55.19Z"/>
      <path class="cls-4" d="M108.27,152.41l-.32,2.01c-.33-.12-.65-.23-.96-.34l.32-2c.32.1.64.22.96.33Z"/>
      <path class="cls-4" d="M107.95,154.42l-8.89,56.35v-1h-.86l8.79-55.69c.31.11.63.22.96.34Z"/>
      <path class="cls-4" d="M107.31,152.08l-.32,2c-7.86-2.73-13.61-4.48-19.63-4.39-8,.13-14.66,2.46-20.54,4.51-4.33,1.52-8.07,2.82-11.7,3.07-.56.04-1.12.06-1.67.06-4.98,0-8.91-1.52-10.9-2.3-.06-.02-.12-.05-.18-.07l-.36-2.24c.33.08.73.24,1.27.45,2.07.8,6.37,2.48,11.71,2.11,3.35-.23,6.98-1.5,11.17-2.97,6.02-2.1,12.84-4.49,21.17-4.62,6.22-.09,12.08,1.65,19.98,4.39Z"/>
      <path class="cls-17" d="M106.99,154.08l-8.79,55.69h-47.18l-8.65-54.81c.06.02.12.05.18.07,1.99.78,5.92,2.3,10.9,2.3.55,0,1.11-.02,1.67-.06,3.63-.25,7.37-1.55,11.7-3.07,5.88-2.05,12.54-4.38,20.54-4.51,6.02-.09,11.77,1.66,19.63,4.39Z"/>
      <polygon class="cls-4" points="99.06 210.78 99.06 211.77 50.16 211.77 50.16 210.78 50.16 210.77 51.15 210.62 51.02 209.77 98.2 209.77 98.07 210.62 99.06 210.77 99.06 210.78"/>
      <polygon class="cls-4" points="99.06 209.77 99.06 210.77 98.07 210.62 98.2 209.77 99.06 209.77"/>
      <polygon class="cls-4" points="51.02 209.77 51.15 210.62 50.16 210.77 50.16 209.77 51.02 209.77"/>
      <path class="cls-4" d="M42.37,154.96l8.65,54.81h-.86v1l-9-57.03h.32l.59.7c-.25.21-.52.21-.61.2.13.02.52.17.91.32Z"/>
      <polygon class="cls-4" points="50.16 210.77 50.16 210.78 49.17 210.93 40.15 153.78 40.4 153.74 41.16 153.74 50.16 210.77"/>
      <path class="cls-4" d="M42.01,152.72l.36,2.24c-.39-.15-.78-.3-.91-.32.09,0,.36,0,.61-.2l-.59-.7h-.32l-.15-.98c.29-.15.59-.15,1-.04Z"/>
      <path class="cls-4" d="M39.26,135.26l2.75,17.46c-.41-.11-.71-.11-1,.04l-2.89-18.29c.33.27.71.54,1.14.79Z"/>
      <path class="cls-4" d="M41.01,152.76l.15.98h-.76l.47-.9c.05-.03.09-.06.14-.08Z"/>
      <path class="cls-4" d="M41.01,152.76s-.09.05-.14.08l-.47.9-.25.04-3.27-20.74c.27.5.69.98,1.24,1.43l2.89,18.29Z"/>
      <path class="cls-4" d="M38.83,132.54l.43,2.72c-.43-.25-.81-.52-1.14-.79l-.28-1.77.99-.16Z"/>
      <path class="cls-4" d="M37.84,132.7l.28,1.77c-.55-.45-.97-.93-1.24-1.43l-.03-.18.99-.16Z"/>
    </g>
    <g>
      <path class="cls-4" d="M390.04,133.28l-.03.19c-.27.5-.69.98-1.24,1.43l.28-1.77.99.15Z"/>
      <path class="cls-4" d="M389.05,133.13l-.28,1.77c-.33.27-.71.54-1.14.79l.43-2.72.99.16Z"/>
      <path class="cls-4" d="M388.77,134.9l-2.83,17.94c-.33-.12-.64-.23-.96-.33l2.65-16.82c.43-.25.81-.52,1.14-.79Z"/>
      <path class="cls-4" d="M390.01,133.47l-12.29,77.89-.99-.16,8.89-56.36c.07.02.14.05.21.07l.66-1.88c-.19-.07-.37-.13-.55-.19l2.83-17.94c.55-.45.97-.93,1.24-1.43Z"/>
      <path class="cls-4" d="M386.49,153.03l-.66,1.88c-.07-.02-.14-.05-.21-.07l.32-2c.18.06.36.12.55.19Z"/>
      <path class="cls-4" d="M385.94,152.84l-.32,2c-.33-.12-.65-.23-.96-.33l.32-2c.32.1.63.21.96.33Z"/>
      <path class="cls-4" d="M385.62,154.84l-8.89,56.36v-1h-.85l8.78-55.69c.31.1.63.21.96.33Z"/>
      <path class="cls-11" d="M384.66,154.51l-8.78,55.69h-47.19l-8.64-54.81c.06.02.12.05.18.07,1.99.77,5.91,2.3,10.9,2.3.54,0,1.1-.02,1.67-.06,3.62-.25,7.37-1.56,11.7-3.07,5.87-2.06,12.53-4.39,20.54-4.51,6.02-.09,11.76,1.65,19.62,4.39Z"/>
      <polygon class="cls-4" points="375.75 211.04 376.73 211.2 376.73 212.2 327.84 212.2 327.84 211.2 328.82 211.04 328.69 210.2 375.88 210.2 375.75 211.04"/>
      <polygon class="cls-4" points="376.73 210.2 376.73 211.2 375.75 211.04 375.88 210.2 376.73 210.2"/>
      <polygon class="cls-4" points="328.69 210.2 328.82 211.04 327.84 211.2 327.84 210.2 328.69 210.2"/>
      <path class="cls-4" d="M320.95,153.59c2.07.81,6.37,2.48,11.71,2.12,3.36-.24,6.98-1.5,11.18-2.97,6.02-2.11,12.84-4.49,21.17-4.62,6.22-.1,12.08,1.64,19.97,4.39l-.32,2c-7.86-2.74-13.6-4.48-19.62-4.39-8.01.12-14.67,2.45-20.54,4.51-4.33,1.51-8.08,2.82-11.7,3.07-.57.04-1.13.06-1.67.06-4.99,0-8.91-1.53-10.9-2.3-.06-.02-.12-.05-.18-.07l-.36-2.24c.33.08.74.24,1.26.44Z"/>
      <path class="cls-4" d="M319.69,153.15l.36,2.24c-.39-.15-.79-.3-.91-.32.08,0,.36,0,.61-.21l-.59-.69h-.32l-.16-.99c.29-.14.6-.14,1.01-.03Z"/>
      <path class="cls-4" d="M316.94,135.7l2.75,17.45c-.41-.11-.72-.11-1.01.03l-2.88-18.27c.33.27.71.53,1.14.79Z"/>
      <path class="cls-4" d="M319.14,155.07c.12.02.52.17.91.32l8.64,54.81h-.85v1l-9-57.03h.32l.59.69c-.25.21-.53.22-.61.21Z"/>
      <polygon class="cls-4" points="318.84 154.17 327.84 211.2 326.85 211.36 317.83 154.21 318.07 154.17 318.84 154.17"/>
      <path class="cls-4" d="M318.68,153.18l.16.99h-.77l.47-.9c.05-.03.09-.06.14-.09Z"/>
      <path class="cls-4" d="M318.54,153.27l-.47.9-.24.04-3.27-20.71c.28.49.69.96,1.24,1.41l2.88,18.27c-.05.03-.09.06-.14.09Z"/>
      <path class="cls-4" d="M352.28,141.12c-14.62,0-29.38-1.85-35.34-5.42l-.43-2.73.03-.03c2.27,2.81,15.45,6.18,35.74,6.18s33.47-3.37,35.74-6.18l.04.03-.43,2.72c-5.95,3.58-20.72,5.43-35.35,5.43Z"/>
      <path class="cls-4" d="M316.51,132.97l.43,2.73c-.43-.26-.81-.52-1.14-.79l-.28-1.78.99-.16Z"/>
      <path class="cls-4" d="M352.28,125.08c-22.36,0-36.09,4.09-36.09,7.02,0,.27.12.55.35.84l-.03.03-.99.16-.99.15.03.22c-.24-.45-.37-.92-.37-1.4,0-5.92,19.17-9.02,38.09-9.02s38.09,3.1,38.09,9.02c0,.47-.12.93-.36,1.37l.03-.19-.99-.15-.99-.16-.04-.03c.23-.29.35-.57.35-.84,0-2.93-13.73-7.02-36.09-7.02Z"/>
      <path class="cls-4" d="M315.52,133.13l.28,1.78c-.55-.45-.96-.92-1.24-1.41l-.03-.22.99-.15Z"/>
    </g>
    <g>
      <path class="cls-4" d="M295.74,132.85l-.03.19c-.27.5-.69.98-1.24,1.43l.28-1.77.99.15Z"/>
      <path class="cls-4" d="M295.71,133.04l.03-.19-.99-.15-.99-.16-.04-.03c.23-.29.35-.57.35-.84,0-2.93-13.73-7.02-36.09-7.02s-36.09,4.09-36.09,7.02c0,.27.12.55.35.84l-.03.03-.99.16-.99.15.03.22c-.24-.45-.37-.92-.37-1.4,0-5.92,19.17-9.02,38.09-9.02s38.09,3.1,38.09,9.02c0,.47-.12.93-.36,1.37Z"/>
      <path class="cls-4" d="M295.71,133.04l-12.29,77.89-.99-.16,8.89-56.36c.07.02.14.05.21.07l.66-1.88c-.19-.07-.37-.13-.55-.19l2.83-17.94c.55-.45.97-.93,1.24-1.43Z"/>
      <path class="cls-4" d="M293.76,132.54l.99.16-.28,1.77c-.33.27-.71.54-1.14.79l.43-2.72Z"/>
      <path class="cls-4" d="M294.47,134.47l-2.83,17.94c-.33-.12-.64-.23-.96-.33l2.65-16.82c.43-.25.81-.52,1.14-.79Z"/>
      <path class="cls-4" d="M293.76,132.54l-.43,2.72c-5.95,3.58-20.72,5.43-35.35,5.43s-29.38-1.85-35.34-5.42l-.43-2.73.03-.03c2.27,2.81,15.45,6.18,35.74,6.18s33.47-3.37,35.74-6.18l.04.03Z"/>
      <path class="cls-4" d="M292.19,152.6l-.66,1.88c-.07-.02-.14-.05-.21-.07l.32-2c.18.06.36.12.55.19Z"/>
      <path class="cls-4" d="M291.64,152.41l-.32,2c-.33-.12-.65-.23-.96-.33l.32-2c.32.1.63.21.96.33Z"/>
      <path class="cls-4" d="M291.32,154.41l-8.89,56.36v-1h-.85l8.78-55.69c.31.1.63.21.96.33Z"/>
      <path class="cls-4" d="M290.68,152.08l-.32,2c-7.86-2.74-13.6-4.48-19.62-4.39-8.01.12-14.67,2.45-20.54,4.51-4.33,1.51-8.08,2.82-11.7,3.07-.57.04-1.13.06-1.67.06-4.99,0-8.91-1.53-10.9-2.3-.06-.02-.12-.05-.18-.07l-.36-2.24c.33.08.74.24,1.26.44,2.07.81,6.37,2.48,11.71,2.12,3.36-.24,6.98-1.5,11.18-2.97,6.02-2.11,12.84-4.49,21.17-4.62,6.22-.1,12.08,1.64,19.97,4.39Z"/>
      <path class="cls-9" d="M290.36,154.08l-8.78,55.69h-47.19l-8.64-54.81c.06.02.12.05.18.07,1.99.77,5.91,2.3,10.9,2.3.54,0,1.1-.02,1.67-.06,3.62-.25,7.37-1.56,11.7-3.07,5.87-2.06,12.53-4.39,20.54-4.51,6.02-.09,11.76,1.65,19.62,4.39Z"/>
      <polygon class="cls-4" points="282.43 210.77 282.43 211.77 233.54 211.77 233.54 210.77 234.52 210.61 234.39 209.77 281.58 209.77 281.45 210.61 282.43 210.77"/>
      <polygon class="cls-4" points="282.43 209.77 282.43 210.77 281.45 210.61 281.58 209.77 282.43 209.77"/>
      <polygon class="cls-4" points="234.39 209.77 234.52 210.61 233.54 210.77 233.54 209.77 234.39 209.77"/>
      <path class="cls-4" d="M225.75,154.96l8.64,54.81h-.85v1l-9-57.03h.32l.59.69c-.25.21-.53.22-.61.21.12.02.52.17.91.32Z"/>
      <polygon class="cls-4" points="224.54 153.74 233.54 210.77 232.55 210.93 223.53 153.78 223.77 153.74 224.54 153.74"/>
      <path class="cls-4" d="M225.39,152.72l.36,2.24c-.39-.15-.79-.3-.91-.32.08.01.36,0,.61-.21l-.59-.69h-.32l-.16-.99c.29-.14.6-.14,1.01-.03Z"/>
      <path class="cls-4" d="M222.64,135.27l2.75,17.45c-.41-.11-.72-.11-1.01.03l-2.88-18.27c.33.27.71.53,1.14.79Z"/>
      <path class="cls-4" d="M224.38,152.75l.16.99h-.77l.47-.9c.05-.03.09-.06.14-.09Z"/>
      <path class="cls-4" d="M221.5,134.48l2.88,18.27c-.05.03-.09.06-.14.09l-.47.9-.24.04-3.27-20.71c.28.49.69.96,1.24,1.41Z"/>
      <path class="cls-4" d="M222.21,132.54l.43,2.73c-.43-.26-.81-.52-1.14-.79l-.28-1.78.99-.16Z"/>
      <path class="cls-4" d="M221.22,132.7l.28,1.78c-.55-.45-.96-.92-1.24-1.41l-.03-.22.99-.15Z"/>
    </g>
    <g>
      <path class="cls-4" d="M201.44,132.85l-.03.19c-.27.5-.69.98-1.24,1.43l.28-1.77.99.15Z"/>
      <path class="cls-4" d="M201.41,133.04l.03-.19-.99-.15-.99-.16-.04-.03c.23-.29.35-.57.35-.84,0-2.93-13.73-7.02-36.09-7.02s-36.09,4.09-36.09,7.02c0,.27.12.55.35.84l-.03.03-.99.16-.99.15.03.22c-.24-.45-.37-.92-.37-1.4,0-5.92,19.17-9.02,38.09-9.02s38.09,3.1,38.09,9.02c0,.47-.12.93-.36,1.37Z"/>
      <path class="cls-4" d="M201.41,133.04l-12.29,77.89-.99-.16,8.89-56.36c.07.02.14.05.21.07l.66-1.88c-.19-.07-.37-.13-.55-.19l2.83-17.94c.55-.45.97-.93,1.24-1.43Z"/>
      <path class="cls-4" d="M199.46,132.54l.99.16-.28,1.77c-.33.27-.71.54-1.14.79l.43-2.72Z"/>
      <path class="cls-4" d="M200.17,134.47l-2.83,17.94c-.33-.12-.64-.23-.96-.33l2.65-16.82c.43-.25.81-.52,1.14-.79Z"/>
      <path class="cls-4" d="M199.46,132.54l-.43,2.72c-5.95,3.58-20.72,5.43-35.35,5.43s-29.38-1.85-35.34-5.42l-.43-2.73.03-.03c2.27,2.81,15.45,6.18,35.74,6.18s33.47-3.37,35.74-6.18l.04.03Z"/>
      <path class="cls-4" d="M197.89,152.6l-.66,1.88c-.07-.02-.14-.05-.21-.07l.32-2c.18.06.36.12.55.19Z"/>
      <path class="cls-4" d="M197.34,152.41l-.32,2c-.33-.12-.65-.23-.96-.33l.32-2c.32.1.63.21.96.33Z"/>
      <path class="cls-4" d="M197.02,154.41l-8.89,56.36v-1h-.85l8.78-55.69c.31.1.63.21.96.33Z"/>
      <path class="cls-4" d="M196.38,152.08l-.32,2c-7.86-2.74-13.6-4.48-19.62-4.39-8.01.12-14.67,2.45-20.54,4.51-4.33,1.51-8.08,2.82-11.7,3.07-.57.04-1.13.06-1.67.06-4.99,0-8.91-1.53-10.9-2.3-.06-.02-.12-.05-.18-.07l-.36-2.24c.33.08.74.24,1.26.44,2.07.81,6.37,2.48,11.71,2.12,3.36-.24,6.98-1.5,11.18-2.97,6.02-2.11,12.84-4.49,21.17-4.62,6.22-.1,12.08,1.64,19.97,4.39Z"/>
      <path class="cls-8" d="M196.06,154.08l-8.78,55.69h-47.19l-8.64-54.81c.06.02.12.05.18.07,1.99.77,5.91,2.3,10.9,2.3.54,0,1.1-.02,1.67-.06,3.62-.25,7.37-1.56,11.7-3.07,5.87-2.06,12.53-4.39,20.54-4.51,6.02-.09,11.76,1.65,19.62,4.39Z"/>
      <polygon class="cls-4" points="188.13 210.77 188.13 211.77 139.24 211.77 139.24 210.77 140.22 210.61 140.09 209.77 187.28 209.77 187.15 210.61 188.13 210.77"/>
      <polygon class="cls-4" points="188.13 209.77 188.13 210.77 187.15 210.61 187.28 209.77 188.13 209.77"/>
      <polygon class="cls-4" points="140.09 209.77 140.22 210.61 139.24 210.77 139.24 209.77 140.09 209.77"/>
      <path class="cls-4" d="M131.45,154.96l8.64,54.81h-.85v1l-9-57.03h.32l.59.69c-.25.21-.53.22-.61.21.12.02.52.17.91.32Z"/>
      <polygon class="cls-4" points="130.24 153.74 139.24 210.77 138.25 210.93 129.23 153.78 129.47 153.74 130.24 153.74"/>
      <path class="cls-4" d="M131.09,152.72l.36,2.24c-.39-.15-.79-.3-.91-.32.08.01.36,0,.61-.21l-.59-.69h-.32l-.16-.99c.29-.14.6-.14,1.01-.03Z"/>
      <path class="cls-4" d="M128.34,135.27l2.75,17.45c-.41-.11-.72-.11-1.01.03l-2.88-18.27c.33.27.71.53,1.14.79Z"/>
      <path class="cls-4" d="M130.08,152.75l.16.99h-.77l.47-.9c.05-.03.09-.06.14-.09Z"/>
      <path class="cls-4" d="M127.2,134.48l2.88,18.27c-.05.03-.09.06-.14.09l-.47.9-.24.04-3.27-20.71c.28.49.69.96,1.24,1.41Z"/>
      <path class="cls-4" d="M127.91,132.54l.43,2.73c-.43-.26-.81-.52-1.14-.79l-.28-1.78.99-.16Z"/>
      <path class="cls-4" d="M126.92,132.7l.28,1.78c-.55-.45-.96-.92-1.24-1.41l-.03-.22.99-.15Z"/>
    </g>
    <g>
      <path class="cls-4" d="M484.33,132.86l-.03.2c-.27.5-.69.97-1.24,1.42l.28-1.78.99.16Z"/>
      <path class="cls-4" d="M484.3,133.06l.03-.2-.99-.16-.98-.15-.05-.03c.24-.29.36-.58.36-.85,0-2.93-13.73-7.02-36.09-7.02s-36.09,4.09-36.09,7.02c0,.27.12.56.36.85l-.05.03-.99.15-.99.16.03.18c-.24-.44-.36-.9-.36-1.37,0-5.92,19.16-9.02,38.09-9.02s38.09,3.1,38.09,9.02c0,.48-.13.94-.37,1.39Z"/>
      <path class="cls-4" d="M484.3,133.06l-12.29,77.87-.98-.15,8.89-56.36c.07.02.14.05.21.07l.66-1.89c-.19-.07-.37-.13-.56-.19l2.83-17.93c.55-.45.97-.92,1.24-1.42Z"/>
      <path class="cls-4" d="M483.34,132.7l-.28,1.78c-.33.27-.71.53-1.13.79l.43-2.72.98.15Z"/>
      <path class="cls-4" d="M483.06,134.48l-2.83,17.93c-.32-.12-.64-.23-.95-.33l2.65-16.81c.42-.26.8-.52,1.13-.79Z"/>
      <path class="cls-4" d="M482.36,132.55l-.43,2.72c-5.95,3.57-20.72,5.42-35.35,5.42s-29.4-1.85-35.35-5.42l-.43-2.72.05-.03c2.29,2.81,15.47,6.17,35.73,6.17s33.44-3.36,35.73-6.17l.05.03Z"/>
      <path class="cls-4" d="M480.79,152.6l-.66,1.89c-.07-.02-.14-.05-.21-.07l.31-2.01c.19.06.37.12.56.19Z"/>
      <path class="cls-4" d="M480.23,152.41l-.31,2.01c-.33-.12-.65-.23-.96-.33l.32-2.01c.31.1.63.21.95.33Z"/>
      <path class="cls-4" d="M479.92,154.42l-8.89,56.36v-1h-.86l8.79-55.69c.31.1.63.21.96.33Z"/>
      <path class="cls-4" d="M479.28,152.08l-.32,2.01c-7.87-2.74-13.61-4.49-19.63-4.4-8.01.13-14.66,2.46-20.54,4.51-4.33,1.52-8.07,2.83-11.7,3.08-.56.04-1.12.05-1.67.05-4.99,0-8.91-1.52-10.9-2.3-.06-.02-.12-.05-.18-.07l-.36-2.24c.33.08.73.24,1.27.45,2.07.8,6.36,2.48,11.71,2.11,3.35-.23,6.97-1.5,11.17-2.97,6.02-2.1,12.84-4.49,21.17-4.62,6.22-.09,12.08,1.65,19.98,4.39Z"/>
      <path class="cls-15" d="M478.96,154.09l-8.79,55.69h-47.18l-8.65-54.82c.06.02.12.05.18.07,1.99.78,5.91,2.3,10.9,2.3.55,0,1.11-.01,1.67-.05,3.63-.25,7.37-1.56,11.7-3.08,5.88-2.05,12.53-4.38,20.54-4.51,6.02-.09,11.76,1.66,19.63,4.4Z"/>
      <polygon class="cls-4" points="471.03 210.78 471.03 211.78 422.13 211.78 422.13 210.78 422.13 210.77 423.12 210.62 422.99 209.78 470.17 209.78 470.04 210.62 471.03 210.78"/>
      <polygon class="cls-4" points="471.03 209.78 471.03 210.78 470.04 210.62 470.17 209.78 471.03 209.78"/>
      <polygon class="cls-4" points="422.99 209.78 423.12 210.62 422.13 210.77 422.13 209.78 422.99 209.78"/>
      <path class="cls-4" d="M413.47,154.65c.15.04.52.17.87.31l8.65,54.82h-.86v.99l-9-57.03h.32l.59.7c-.22.19-.46.22-.57.21Z"/>
      <polygon class="cls-4" points="422.13 210.77 422.13 210.78 421.14 210.93 412.12 153.78 412.37 153.74 413.13 153.74 422.13 210.77"/>
      <path class="cls-4" d="M413.98,152.72l.36,2.24c-.35-.14-.72-.27-.87-.31.11.01.35-.02.57-.21l-.59-.7h-.32l-.15-.98c.29-.15.59-.15,1-.04Z"/>
      <path class="cls-4" d="M411.23,135.27l2.75,17.45c-.41-.11-.71-.11-1,.04l-2.89-18.29c.33.27.71.54,1.14.8Z"/>
      <path class="cls-4" d="M412.98,152.76l.15.98h-.76l.47-.9s.09-.06.14-.08Z"/>
      <path class="cls-4" d="M412.98,152.76c-.05.02-.09.05-.14.08l-.47.9-.25.04-3.27-20.74c.27.5.69.98,1.24,1.43l2.89,18.29Z"/>
      <path class="cls-4" d="M410.8,132.55l.43,2.72c-.43-.26-.81-.53-1.14-.8l-.28-1.77.99-.15Z"/>
      <path class="cls-4" d="M409.81,132.7l.28,1.77c-.55-.45-.97-.93-1.24-1.43l-.03-.18.99-.16Z"/>
    </g>
    <g>
      <path class="cls-4" d="M658.76,137.17l-.03.18c-.27.5-.69.98-1.24,1.43l.28-1.77.99.16Z"/>
      <path class="cls-4" d="M658.73,137.35l.03-.18-.99-.16-.99-.15-.05-.03c.24-.29.36-.57.36-.85,0-2.93-13.73-7.02-36.09-7.02s-36.09,4.09-36.09,7.02c0,.28.12.56.36.85l-.05.03-.98.15-.99.16.03.2c-.24-.45-.37-.91-.37-1.39,0-5.92,19.16-9.02,38.09-9.02s38.09,3.1,38.09,9.02c0,.47-.12.93-.36,1.37Z"/>
      <path class="cls-4" d="M658.73,137.35l-12.29,77.89-.99-.15,8.89-56.36c.07.02.14.05.21.07l.66-1.89c-.18-.06-.37-.13-.55-.19l2.83-17.94c.55-.45.97-.93,1.24-1.43Z"/>
      <path class="cls-4" d="M657.77,137.01l-.28,1.77c-.33.27-.71.54-1.14.79l.43-2.71.99.15Z"/>
      <path class="cls-4" d="M657.49,138.78l-2.83,17.94c-.32-.11-.64-.23-.96-.33l2.65-16.82c.43-.25.81-.52,1.14-.79Z"/>
      <path class="cls-4" d="M656.78,136.86l-.43,2.71c-5.95,3.58-20.72,5.43-35.35,5.43s-29.4-1.85-35.35-5.43l-.43-2.71.05-.03c2.29,2.81,15.47,6.17,35.73,6.17s33.44-3.36,35.73-6.17l.05.03Z"/>
      <path class="cls-4" d="M655.21,156.91l-.66,1.89c-.07-.02-.14-.05-.21-.07l.32-2.01c.18.06.37.13.55.19Z"/>
      <path class="cls-4" d="M654.66,156.72l-.32,2.01c-.33-.12-.65-.23-.96-.33l.32-2.01c.32.1.64.22.96.33Z"/>
      <path class="cls-4" d="M654.34,158.73l-8.89,56.36v-1h-.86l8.79-55.69c.31.1.63.21.96.33Z"/>
      <path class="cls-4" d="M653.7,156.39l-.32,2.01c-7.86-2.74-13.61-4.49-19.63-4.4-8,.13-14.66,2.46-20.53,4.51-4.34,1.52-8.08,2.83-11.7,3.08-.57.04-1.13.05-1.67.05-4.99,0-8.92-1.52-10.9-2.3-.06-.02-.13-.05-.19-.07l-.36-2.24c.33.08.73.24,1.27.45,2.07.8,6.37,2.48,11.71,2.11,3.35-.23,6.98-1.5,11.18-2.97,6.01-2.1,12.83-4.49,21.16-4.62,6.22-.09,12.08,1.65,19.98,4.39Z"/>
      <path class="cls-16" d="M653.38,158.4l-8.79,55.69h-47.18l-8.65-54.82c.06.02.13.05.19.07,1.98.78,5.91,2.3,10.9,2.3.54,0,1.1,0,1.67-.05,3.62-.25,7.36-1.56,11.7-3.08,5.87-2.05,12.53-4.38,20.53-4.51,6.02-.09,11.77,1.66,19.63,4.4Z"/>
      <polygon class="cls-4" points="645.45 215.09 645.45 216.09 596.55 216.09 596.55 215.09 597.54 214.93 597.41 214.09 644.59 214.09 644.46 214.93 645.45 215.09"/>
      <polygon class="cls-4" points="645.45 214.09 645.45 215.09 644.46 214.93 644.59 214.09 645.45 214.09"/>
      <polygon class="cls-4" points="597.41 214.09 597.54 214.93 596.55 215.09 596.55 214.09 597.41 214.09"/>
      <path class="cls-4" d="M587.9,158.96c.14.04.5.17.86.31l8.65,54.82h-.86v1l-8.99-57.04h.32l.58.7c-.22.18-.46.21-.56.21Z"/>
      <polygon class="cls-4" points="587.56 158.05 596.55 215.09 595.57 215.24 586.55 158.09 586.79 158.05 587.56 158.05"/>
      <path class="cls-4" d="M588.4,157.03l.36,2.24c-.36-.14-.72-.27-.86-.31.1,0,.34-.03.56-.21l-.58-.7h-.32l-.16-.99c.29-.14.59-.14,1-.03Z"/>
      <path class="cls-4" d="M585.65,139.57l2.75,17.46c-.41-.11-.71-.11-1,.03l-2.88-18.27c.33.27.71.53,1.13.78Z"/>
      <path class="cls-4" d="M587.4,157.06l.16.99h-.77l.47-.9c.05-.03.09-.06.14-.09Z"/>
      <path class="cls-4" d="M584.52,138.79l2.88,18.27c-.05.03-.09.06-.14.09l-.47.9-.24.04-3.27-20.72c.27.49.69.97,1.24,1.42Z"/>
      <path class="cls-4" d="M585.22,136.86l.43,2.71c-.42-.25-.8-.51-1.13-.78l-.28-1.78.98-.15Z"/>
      <path class="cls-4" d="M584.24,137.01l.28,1.78c-.55-.45-.97-.93-1.24-1.42l-.03-.2.99-.16Z"/>
    </g>
    <g>
      <path class="cls-4" d="M936.42,137.59l-.03.22c-.28.49-.69.96-1.24,1.41l.28-1.78.99.15Z"/>
      <path class="cls-4" d="M936.39,137.81l.03-.22-.99-.15-.98-.16-.04-.03c.23-.29.35-.57.35-.84,0-2.93-13.73-7.02-36.09-7.02s-36.09,4.09-36.09,7.02c0,.27.12.55.35.84l-.04.03-.99.16-.99.15.03.19c-.24-.44-.36-.9-.36-1.37,0-5.92,19.16-9.02,38.09-9.02s38.09,3.1,38.09,9.02c0,.48-.13.95-.37,1.4Z"/>
      <path class="cls-4" d="M936.39,137.81l-12.29,77.86-.98-.15h0s8.89-56.36,8.89-56.36c.07.02.14.05.21.07l.66-1.89c-.19-.07-.37-.13-.56-.19l2.83-17.93c.55-.45.96-.92,1.24-1.41Z"/>
      <path class="cls-4" d="M934.45,137.28l.98.16-.28,1.78c-.33.27-.71.53-1.13.78l.43-2.72Z"/>
      <path class="cls-4" d="M935.15,139.22l-2.83,17.93c-.32-.12-.64-.23-.95-.33l2.65-16.82c.42-.25.8-.51,1.13-.78Z"/>
      <path class="cls-4" d="M934.45,137.28l-.43,2.72c-5.95,3.58-20.72,5.43-35.35,5.43s-29.4-1.85-35.35-5.43l-.43-2.72.04-.03c2.27,2.81,15.45,6.18,35.74,6.18s33.47-3.37,35.74-6.18l.04.03Z"/>
      <path class="cls-4" d="M932.88,157.34l-.66,1.89c-.07-.02-.14-.05-.21-.07l.31-2.01c.19.06.37.12.56.19Z"/>
      <path class="cls-4" d="M932.32,157.15l-.31,2.01c-.33-.12-.65-.23-.96-.34l.32-2c.31.1.63.21.95.33Z"/>
      <path class="cls-4" d="M932.01,159.16l-8.89,56.35v-1h-.86l8.79-55.69c.31.11.63.22.96.34Z"/>
      <path class="cls-4" d="M931.37,156.82l-.32,2c-7.87-2.74-13.61-4.48-19.63-4.39-8,.13-14.66,2.45-20.54,4.51-4.33,1.51-8.07,2.82-11.7,3.07-.56.04-1.12.06-1.67.06-4.99,0-8.91-1.53-10.9-2.3-.06-.02-.12-.05-.18-.07l-.36-2.24c.33.08.73.24,1.27.45,2.07.8,6.36,2.47,11.71,2.11,3.35-.23,6.97-1.5,11.17-2.97,6.02-2.1,12.84-4.49,21.17-4.62,6.22-.1,12.08,1.64,19.98,4.39Z"/>
      <path class="cls-13" d="M931.05,158.82l-8.79,55.69h-47.18l-8.65-54.81c.06.02.12.05.18.07,1.99.77,5.91,2.3,10.9,2.3.55,0,1.11-.02,1.67-.06,3.63-.25,7.37-1.56,11.7-3.07,5.88-2.06,12.54-4.38,20.54-4.51,6.02-.09,11.76,1.65,19.63,4.39Z"/>
      <polygon class="cls-4" points="923.12 215.52 923.12 216.51 874.22 216.51 874.22 215.52 874.22 215.51 875.21 215.36 875.08 214.51 922.26 214.51 922.13 215.36 923.12 215.52"/>
      <polygon class="cls-4" points="923.12 215.51 923.12 215.52 922.13 215.36 922.26 214.51 923.12 214.51 923.12 215.51"/>
      <polygon class="cls-4" points="875.08 214.51 875.21 215.36 874.22 215.51 874.22 214.51 875.08 214.51"/>
      <path class="cls-4" d="M866.43,159.7l8.65,54.81h-.86v1l-9-57.03h.32l.59.69c-.25.21-.52.22-.61.21.13.02.52.17.91.32Z"/>
      <polygon class="cls-4" points="874.22 215.51 874.22 215.52 873.23 215.67 864.21 158.52 864.46 158.48 865.22 158.48 874.22 215.51"/>
      <path class="cls-4" d="M866.07,157.46l.36,2.24c-.39-.15-.78-.3-.91-.32.09.01.36,0,.61-.21l-.59-.69h-.32l-.15-.98c.29-.15.59-.15,1-.04Z"/>
      <path class="cls-4" d="M863.32,140l2.75,17.46c-.41-.11-.71-.11-1,.04l-2.89-18.29c.33.27.71.54,1.14.79Z"/>
      <path class="cls-4" d="M865.07,157.5l.15.98h-.76l.47-.9s.09-.06.14-.08Z"/>
      <path class="cls-4" d="M865.07,157.5s-.09.05-.14.08l-.47.9-.25.04-3.27-20.74c.27.5.69.98,1.24,1.43l2.89,18.29Z"/>
      <path class="cls-4" d="M862.89,137.28l.43,2.72c-.43-.25-.81-.52-1.14-.79l-.28-1.77.99-.16Z"/>
      <path class="cls-4" d="M861.9,137.44l.28,1.77c-.55-.45-.97-.93-1.24-1.43l-.03-.19.99-.15Z"/>
    </g>
    <g>
      <path class="cls-4" d="M842.13,137.16l-.03.22c-.28.49-.69.96-1.24,1.41l.28-1.78.99.15Z"/>
      <path class="cls-4" d="M842.1,137.38l.03-.22-.99-.15-.98-.16-.04-.03c.23-.29.35-.57.35-.84,0-2.93-13.73-7.02-36.09-7.02s-36.09,4.09-36.09,7.02c0,.27.12.55.35.84l-.04.03-.99.16-.99.15.03.19c-.24-.44-.36-.9-.36-1.37,0-5.92,19.16-9.02,38.09-9.02s38.09,3.1,38.09,9.02c0,.48-.13.95-.37,1.4Z"/>
      <path class="cls-4" d="M842.1,137.38l-12.29,77.86-.98-.15h0s8.89-56.36,8.89-56.36c.07.02.14.05.21.07l.66-1.89c-.19-.07-.37-.13-.56-.19l2.83-17.93c.55-.45.96-.92,1.24-1.41Z"/>
      <path class="cls-4" d="M840.16,136.85l.98.16-.28,1.78c-.33.27-.71.53-1.13.78l.43-2.72Z"/>
      <path class="cls-4" d="M840.86,138.79l-2.83,17.93c-.32-.12-.64-.23-.95-.33l2.65-16.82c.42-.25.8-.51,1.13-.78Z"/>
      <path class="cls-4" d="M840.16,136.85l-.43,2.72c-5.95,3.58-20.72,5.43-35.35,5.43s-29.4-1.85-35.35-5.43l-.43-2.72.04-.03c2.27,2.81,15.45,6.18,35.74,6.18s33.47-3.37,35.74-6.18l.04.03Z"/>
      <path class="cls-4" d="M838.59,156.91l-.66,1.89c-.07-.02-.14-.05-.21-.07l.31-2.01c.19.06.37.12.56.19Z"/>
      <path class="cls-4" d="M838.03,156.72l-.31,2.01c-.33-.12-.65-.23-.96-.34l.32-2c.31.1.63.21.95.33Z"/>
      <path class="cls-4" d="M837.72,158.73l-8.89,56.35v-1h-.86l8.79-55.69c.31.11.63.22.96.34Z"/>
      <path class="cls-4" d="M837.08,156.39l-.32,2c-7.87-2.74-13.61-4.48-19.63-4.39-8,.13-14.66,2.45-20.54,4.51-4.33,1.51-8.07,2.82-11.7,3.07-.56.04-1.12.06-1.67.06-4.99,0-8.91-1.53-10.9-2.3-.06-.02-.12-.05-.18-.07l-.36-2.24c.33.08.73.24,1.27.45,2.07.8,6.36,2.47,11.71,2.11,3.35-.23,6.97-1.5,11.17-2.97,6.02-2.1,12.84-4.49,21.17-4.62,6.22-.1,12.08,1.64,19.98,4.39Z"/>
      <path class="cls-14" d="M836.76,158.39l-8.79,55.69h-47.18l-8.65-54.81c.06.02.12.05.18.07,1.99.77,5.91,2.3,10.9,2.3.55,0,1.11-.02,1.67-.06,3.63-.25,7.37-1.56,11.7-3.07,5.88-2.06,12.54-4.38,20.54-4.51,6.02-.09,11.76,1.65,19.63,4.39Z"/>
      <polygon class="cls-4" points="828.83 215.09 828.83 216.08 779.93 216.08 779.93 215.09 779.93 215.08 780.92 214.93 780.79 214.08 827.97 214.08 827.84 214.93 828.83 215.09"/>
      <polygon class="cls-4" points="828.83 215.08 828.83 215.09 827.84 214.93 827.97 214.08 828.83 214.08 828.83 215.08"/>
      <polygon class="cls-4" points="780.79 214.08 780.92 214.93 779.93 215.08 779.93 214.08 780.79 214.08"/>
      <path class="cls-4" d="M772.14,159.27l8.65,54.81h-.86v1l-9-57.03h.32l.59.69c-.25.21-.52.22-.61.21.13.02.52.17.91.32Z"/>
      <polygon class="cls-4" points="779.93 215.08 779.93 215.09 778.94 215.24 769.92 158.09 770.17 158.05 770.93 158.05 779.93 215.08"/>
      <path class="cls-4" d="M771.78,157.03l.36,2.24c-.39-.15-.78-.3-.91-.32.09.01.36,0,.61-.21l-.59-.69h-.32l-.15-.98c.29-.15.59-.15,1-.04Z"/>
      <path class="cls-4" d="M769.03,139.57l2.75,17.46c-.41-.11-.71-.11-1,.04l-2.89-18.29c.33.27.71.54,1.14.79Z"/>
      <path class="cls-4" d="M770.78,157.07l.15.98h-.76l.47-.9c.05-.03.09-.06.14-.08Z"/>
      <path class="cls-4" d="M770.78,157.07c-.05.02-.09.05-.14.08l-.47.9-.25.04-3.27-20.74c.27.5.69.98,1.24,1.43l2.89,18.29Z"/>
      <path class="cls-4" d="M768.6,136.85l.43,2.72c-.43-.25-.81-.52-1.14-.79l-.28-1.77.99-.16Z"/>
      <path class="cls-4" d="M767.61,137.01l.28,1.77c-.55-.45-.97-.93-1.24-1.43l-.03-.19.99-.15Z"/>
    </g>
    <g>
      <path class="cls-4" d="M747.83,137.16l-.03.22c-.28.49-.69.96-1.24,1.41l.28-1.78.99.15Z"/>
      <path class="cls-4" d="M747.8,137.38l.03-.22-.99-.15-.98-.16-.04-.03c.23-.29.35-.57.35-.84,0-2.93-13.73-7.02-36.09-7.02s-36.09,4.09-36.09,7.02c0,.27.12.55.35.84l-.04.03-.99.16-.99.15.03.19c-.24-.44-.36-.9-.36-1.37,0-5.92,19.16-9.02,38.09-9.02s38.09,3.1,38.09,9.02c0,.48-.13.95-.37,1.4Z"/>
      <path class="cls-4" d="M747.8,137.38l-12.29,77.86-.98-.15h0s8.89-56.36,8.89-56.36c.07.02.14.05.21.07l.66-1.89c-.19-.07-.37-.13-.56-.19l2.83-17.93c.55-.45.96-.92,1.24-1.41Z"/>
      <path class="cls-4" d="M745.86,136.85l.98.16-.28,1.78c-.33.27-.71.53-1.13.78l.43-2.72Z"/>
      <path class="cls-4" d="M746.56,138.79l-2.83,17.93c-.32-.12-.64-.23-.95-.33l2.65-16.82c.42-.25.8-.51,1.13-.78Z"/>
      <path class="cls-4" d="M745.86,136.85l-.43,2.72c-5.95,3.58-20.72,5.43-35.35,5.43s-29.4-1.85-35.35-5.43l-.43-2.72.04-.03c2.27,2.81,15.45,6.18,35.74,6.18s33.47-3.37,35.74-6.18l.04.03Z"/>
      <path class="cls-4" d="M744.29,156.91l-.66,1.89c-.07-.02-.14-.05-.21-.07l.31-2.01c.19.06.37.12.56.19Z"/>
      <path class="cls-4" d="M743.73,156.72l-.31,2.01c-.33-.12-.65-.23-.96-.34l.32-2c.31.1.63.21.95.33Z"/>
      <path class="cls-4" d="M743.42,158.73l-8.89,56.35v-1h-.86l8.79-55.69c.31.11.63.22.96.34Z"/>
      <path class="cls-4" d="M742.78,156.39l-.32,2c-7.87-2.74-13.61-4.48-19.63-4.39-8,.13-14.66,2.45-20.54,4.51-4.33,1.51-8.07,2.82-11.7,3.07-.56.04-1.12.06-1.67.06-4.99,0-8.91-1.53-10.9-2.3-.06-.02-.12-.05-.18-.07l-.36-2.24c.33.08.73.24,1.27.45,2.07.8,6.36,2.47,11.71,2.11,3.35-.23,6.97-1.5,11.17-2.97,6.02-2.1,12.84-4.49,21.17-4.62,6.22-.1,12.08,1.64,19.98,4.39Z"/>
      <path class="cls-12" d="M742.46,158.39l-8.79,55.69h-47.18l-8.65-54.81c.06.02.12.05.18.07,1.99.77,5.91,2.3,10.9,2.3.55,0,1.11-.02,1.67-.06,3.63-.25,7.37-1.56,11.7-3.07,5.88-2.06,12.54-4.38,20.54-4.51,6.02-.09,11.76,1.65,19.63,4.39Z"/>
      <polygon class="cls-4" points="734.53 215.09 734.53 216.08 685.63 216.08 685.63 215.09 685.63 215.08 686.62 214.93 686.49 214.08 733.67 214.08 733.54 214.93 734.53 215.09"/>
      <polygon class="cls-4" points="734.53 215.08 734.53 215.09 733.54 214.93 733.67 214.08 734.53 214.08 734.53 215.08"/>
      <polygon class="cls-4" points="686.49 214.08 686.62 214.93 685.63 215.08 685.63 214.08 686.49 214.08"/>
      <path class="cls-4" d="M677.84,159.27l8.65,54.81h-.86v1l-9-57.03h.32l.59.69c-.25.21-.52.22-.61.21.13.02.52.17.91.32Z"/>
      <polygon class="cls-4" points="685.63 215.08 685.63 215.09 684.64 215.24 675.62 158.09 675.87 158.05 676.63 158.05 685.63 215.08"/>
      <path class="cls-4" d="M677.48,157.03l.36,2.24c-.39-.15-.78-.3-.91-.32.09.01.36,0,.61-.21l-.59-.69h-.32l-.15-.98c.29-.15.59-.15,1-.04Z"/>
      <path class="cls-4" d="M674.73,139.57l2.75,17.46c-.41-.11-.71-.11-1,.04l-2.89-18.29c.33.27.71.54,1.14.79Z"/>
      <path class="cls-4" d="M676.48,157.07l.15.98h-.76l.47-.9c.05-.03.09-.06.14-.08Z"/>
      <path class="cls-4" d="M676.48,157.07c-.05.02-.09.05-.14.08l-.47.9-.25.04-3.27-20.74c.27.5.69.98,1.24,1.43l2.89,18.29Z"/>
      <path class="cls-4" d="M674.3,136.85l.43,2.72c-.43-.25-.81-.52-1.14-.79l-.28-1.77.99-.16Z"/>
      <path class="cls-4" d="M673.31,137.01l.28,1.77c-.55-.45-.97-.93-1.24-1.43l-.03-.19.99-.15Z"/>
    </g>
    <g>
      <path class="cls-4" d="M1030.72,137.17l-.03.22c-.28.49-.69.96-1.23,1.4l.28-1.77.98.15Z"/>
      <path class="cls-4" d="M1029.74,137.02l-.99-.16-.04-.03c.23-.29.35-.57.35-.84,0-2.94-13.73-7.02-36.09-7.02s-36.09,4.08-36.09,7.02c0,.27.12.55.35.84l-.04.03-.99.16-.98.15.03.22c-.24-.45-.37-.92-.37-1.4,0-5.93,19.16-9.02,38.09-9.02s38.09,3.09,38.09,9.02c0,.48-.13.95-.37,1.4l.03-.22-.98-.15Z"/>
      <path class="cls-4" d="M1030.69,137.39l-12.28,77.85-.99-.15,8.89-56.36c.07.02.14.05.21.07l.66-1.89c-.18-.06-.37-.13-.55-.19l2.83-17.93c.54-.44.95-.91,1.23-1.4Z"/>
      <path class="cls-4" d="M1029.74,137.02l-.28,1.77c-.33.27-.71.54-1.14.79l.43-2.72.99.16Z"/>
      <path class="cls-4" d="M1029.46,138.79l-2.83,17.93c-.32-.11-.64-.23-.96-.33l2.65-16.81c.43-.25.81-.52,1.14-.79Z"/>
      <path class="cls-4" d="M1028.75,136.86l-.43,2.72c-5.95,3.57-20.72,5.42-35.35,5.42s-29.4-1.85-35.35-5.42l-.43-2.72.04-.03c2.27,2.81,15.45,6.17,35.74,6.17s33.47-3.36,35.74-6.17l.04.03Z"/>
      <path class="cls-4" d="M1027.18,156.91l-.66,1.89c-.07-.02-.14-.05-.21-.07l.32-2.01c.18.06.37.13.55.19Z"/>
      <path class="cls-4" d="M1026.63,156.72l-.32,2.01c-.33-.12-.65-.23-.96-.33l.32-2.01c.32.1.64.22.96.33Z"/>
      <path class="cls-4" d="M1026.31,158.73l-8.89,56.36v-1h-.86l8.79-55.69c.31.1.63.21.96.33Z"/>
      <path class="cls-4" d="M1025.67,156.39l-.32,2.01c-7.86-2.74-13.61-4.49-19.63-4.4-8,.13-14.66,2.46-20.54,4.51-4.33,1.52-8.07,2.83-11.69,3.08-.57.04-1.13.06-1.67.06-4.99,0-8.92-1.53-10.9-2.3-.06-.03-.13-.05-.19-.08l-.36-2.24c.33.09.73.25,1.27.45,2.07.81,6.37,2.48,11.71,2.11,3.35-.23,6.98-1.5,11.17-2.96,6.02-2.11,12.84-4.49,21.17-4.63,6.22-.09,12.08,1.65,19.98,4.39Z"/>
      <path class="cls-10" d="M1025.35,158.4l-8.79,55.69h-47.18l-8.65-54.82c.06.03.13.05.19.08,1.98.77,5.91,2.3,10.9,2.3.54,0,1.1-.02,1.67-.06,3.62-.25,7.36-1.56,11.69-3.08,5.88-2.05,12.54-4.38,20.54-4.51,6.02-.09,11.77,1.66,19.63,4.4Z"/>
      <polygon class="cls-4" points="1017.42 215.09 1017.42 216.09 968.52 216.09 968.52 215.09 969.51 214.93 969.38 214.09 1016.56 214.09 1016.43 214.93 1017.42 215.09"/>
      <polygon class="cls-4" points="1017.42 214.09 1017.42 215.09 1016.43 214.93 1016.56 214.09 1017.42 214.09"/>
      <polygon class="cls-4" points="969.38 214.09 969.51 214.93 968.52 215.09 968.52 214.09 969.38 214.09"/>
      <path class="cls-4" d="M959.86,158.96c.15.04.51.17.87.31l8.65,54.82h-.86v1l-9-57.04h.33l.58.7c-.22.19-.46.22-.57.21Z"/>
      <polygon class="cls-4" points="959.52 158.05 968.52 215.09 967.53 215.24 958.52 158.09 958.76 158.05 959.52 158.05"/>
      <path class="cls-4" d="M960.37,157.03l.36,2.24c-.36-.14-.72-.27-.87-.31.11.01.35-.02.57-.21l-.58-.7h-.33l-.15-.98c.29-.15.59-.15,1-.04Z"/>
      <path class="cls-4" d="M957.62,139.58l2.75,17.45c-.41-.11-.71-.11-1,.04l-2.89-18.28c.33.27.71.54,1.14.79Z"/>
      <path class="cls-4" d="M959.37,157.07l.15.98h-.76l.47-.9s.09-.06.14-.08Z"/>
      <path class="cls-4" d="M959.37,157.07s-.09.05-.14.08l-.47.9-.24.04-3.27-20.7c.28.49.69.96,1.23,1.4l2.89,18.28Z"/>
      <path class="cls-4" d="M957.19,136.86l.43,2.72c-.43-.25-.81-.52-1.14-.79l-.28-1.77.99-.16Z"/>
      <path class="cls-4" d="M956.2,137.02l.28,1.77c-.54-.44-.95-.91-1.23-1.4l-.03-.22.98-.15Z"/>
    </g>
    <text class="cls-2" transform="translate(50.16 235.52)"><tspan x="0" y="0">KINDNESS</tspan></text>
    <text class="cls-1" transform="translate(112.7 87.31)"><tspan x="0" y="0">Good human qualities</tspan></text>
    <text class="cls-1" transform="translate(695.22 87.31)"><tspan x="0" y="0">Bad human qualities</tspan></text>
    <text class="cls-2" transform="translate(148.69 235.52)"><tspan x="0" y="0">TACT</tspan></text>
    <text class="cls-2" transform="translate(234.52 234.41)"><tspan x="0" y="0">HONESTY</tspan></text>
    <text class="cls-2" transform="translate(327.83 234.41)"><tspan x="0" y="0">COURAGE</tspan></text>
    <text class="cls-2" transform="translate(408.49 235.64)"><tspan x="0" y="0">RESPONSIBILITY</tspan></text>
    <text class="cls-2" transform="translate(586.79 235.77)"><tspan x="0" y="0">ARROGANCE</tspan></text>
    <text class="cls-2" transform="translate(674.87 235.52)"><tspan x="0" y="0">SELFISHNESS</tspan></text>
    <text class="cls-2" transform="translate(773.77 235.9)"><tspan x="0" y="0">IMPUDENCE</tspan></text>
    <text class="cls-2" transform="translate(868.06 236.04)"><tspan x="0" y="0">HYPOCRISY</tspan></text>
    <text class="cls-2" transform="translate(954.88 235.9)"><tspan x="0" y="0">AGRESSIVENESS</tspan></text>
    <text class="cls-3" transform="translate(25.37 664.74)"><tspan x="0" y="0">5 GOOD = EXCELLENT PERSON</tspan><tspan x="0" y="29.05">4 GOOD x 1 BAD = AWESOME PERSON</tspan><tspan x="0" y="58.1">3 GOOD x 2 BAD = GREAT PERSON</tspan><tspan x="0" y="87.15">2 GOOD x 3 BAD = NORMAL PERSON</tspan><tspan x="0" y="116.2">1 GOOD x 4 BAD = BAD PERSON</tspan><tspan x="0" y="145.25">5 BAD = AWFUL PERSON</tspan></text>
  </g>
  <g id="_Слой_2" data-name="Слой 2">
    <g>
      <path class="cls-6" d="M629.57,359.89c-1.87,22.53-6.22,32.86-24.44,33.86-18.53,1.02-26.47-16.77-25.36-36.5,1-17.84,7.44-29.02,23.82-30.22,19.72-1.45,27.55,13.94,25.97,32.86Z"/>
      <path class="cls-6" d="M596.66,392.74c0,3.03-.98,5.48-2.2,5.48"/>
      <path class="cls-6" d="M613.74,392.74c0,2.65.82,4.79,1.84,4.79"/>
      <path class="cls-6" d="M595.56,397.78c-23.33,7.31-38.92,29.2-47.35,38.54"/>
      <path class="cls-6" d="M615.58,397.53c3.92-.45,11.77.9,15.71,3.92,14.28,10.98,27.96,23.86,37.37,39.37"/>
      <path class="cls-6" d="M668.49,440.34c.62,9.04-23.4,25.83-33.53,36.22-2.71,2.78-2.02,4.75-6.39,6.02"/>
      <path class="cls-6" d="M628.57,418.9c9.37,10.97,20.82,22.85,20.82,22.85"/>
      <path class="cls-6" d="M649.39,441.74c-8.01,9.29-10.41,14.41-13.26,18.63"/>
      <path class="cls-6" d="M636.13,460.37c0,.6-3.86-.98-7.04.11"/>
      <path class="cls-6" d="M629.76,461.46c0-21.93.87-39.67,1.95-39.67"/>
      <path class="cls-6" d="M581.1,417.05c-5.35,27.71-7.72,51.63-8.53,60.5"/>
      <path class="cls-6" d="M564.02,437.46c4.1-1.82,10.67-7.42,15.65-11.56"/>
      <path class="cls-6" d="M548.57,435.48c-.36,6.71,11.17,22.55,17.03,25.98"/>
      <path class="cls-6" d="M564.97,460.48c-.86,7.18,3.39,12.98,7.99,12.45"/>
      <path class="cls-6" d="M564.29,436.32c4.23,8.09,6.11,14.25,10.41,21.45"/>
      <path class="cls-6" d="M572.57,477.56c0,.19,1.23.35,2.76.35"/>
      <path class="cls-6" d="M573.95,477.91c-.79,40.79,1.74,73.79,4.94,73.79"/>
      <path class="cls-6" d="M578.14,551.09c.17,1.28,9.77,3.7,19.99.6"/>
      <path class="cls-6" d="M597.5,552.58c-4.07-33.61-1.28-61.55.64-61.5"/>
      <path class="cls-6" d="M598.14,491.08c-1.37-.52,4.6.8,9.08.8"/>
      <path class="cls-6" d="M606.25,491.87c6.31,31.16,12.4,57.62,17.18,61.72"/>
      <path class="cls-6" d="M623.12,553.28c3.44,1.41,12.15.5,17.98-3.5"/>
      <path class="cls-6" d="M640.88,550.66c-9.6-27.61-11.63-60.65-12.3-69.14"/>
      <path class="cls-6" d="M584.09,553.28c0,2.8.57,5.48,1.03,5.48"/>
      <path class="cls-6" d="M595.82,552.58v5.77"/>
      <path class="cls-6" d="M582.87,556.02c1.22,4.26,7.49,5.17,14.11,2.32"/>
      <path class="cls-6" d="M582.81,557.08c-10.54,3.27-19.74,5.4-18.93,13.84"/>
      <path class="cls-6" d="M563.01,570.58s17.23,1.28,36.77,0"/>
      <path class="cls-6" d="M599.01,570.92c0-6.95-1.39-12.03-2.52-12.03"/>
      <path class="cls-6" d="M627.99,554.62c0,2.8.57,5.48,1.03,5.48"/>
      <path class="cls-6" d="M638.56,551.25c0,2.8,1.15,8.43,1.15,8.43"/>
      <path class="cls-6" d="M626.77,557.36c1.22,4.26,7.49,5.17,14.11,2.32"/>
      <path class="cls-6" d="M626.7,558.41c-10.54,3.27-19.74,5.4-18.93,13.84"/>
      <path class="cls-6" d="M606.9,571.91s17.23,1.28,36.77,0"/>
      <path class="cls-6" d="M642.91,572.25c0-6.95-1.39-12.03-2.52-12.03"/>
    </g>
  </g>
</svg>